<?xml version="1.0" standalone="no"?>
<!DOCTYPE svg PUBLIC "-//W3C//DTD SVG 20010904//EN"
 "http://www.w3.org/TR/2001/REC-SVG-20010904/DTD/svg10.dtd">
<svg version="1.0" xmlns="http://www.w3.org/2000/svg"
 width="300.000000pt" height="150.000000pt" viewBox="0 0 300.000000 150.000000"
 preserveAspectRatio="xMidYMid meet">
<metadata>
Created by potrace 1.10, written by Peter Selinger 2001-2011
</metadata>
<g transform="translate(0.000000,150.000000) scale(0.100000,-0.100000)"
fill="#000000" stroke="none">
<path d="M1432 1158 c-102 -16 -195 -83 -242 -175 -67 -131 -67 -335 0 -466
123 -239 505 -247 616 -12 45 95 25 192 -55 269 -22 22 -46 56 -52 75 -16 48
-42 80 -91 114 -74 49 -192 30 -247 -39 -27 -35 -26 -46 5 -83 l26 -31 -30
-35 c-45 -51 -52 -111 -18 -169 64 -109 200 -127 297 -39 43 39 54 25 18 -21
-33 -42 -76 -59 -150 -60 -93 0 -154 31 -189 99 -21 42 -25 65 -28 160 -3 105
-2 113 25 164 42 81 90 104 204 99 76 -4 91 -7 123 -32 20 -15 43 -41 52 -59
36 -71 77 -92 125 -66 46 24 39 87 -21 174 -72 105 -217 157 -368 133z m200
-54 c60 -19 132 -83 163 -145 32 -62 31 -75 -2 -82 -36 -7 -40 -3 -48 34 -11
51 -84 115 -151 135 -130 38 -260 -11 -315 -118 -44 -85 -45 -267 -3 -351 56
-110 186 -161 316 -123 121 35 173 158 101 238 -23 26 -30 22 -36 -17 -8 -50
-40 -90 -87 -109 -53 -21 -85 -20 -136 4 -69 34 -92 105 -54 167 28 47 73 66
152 67 76 1 84 11 43 51 -31 32 -105 35 -134 6 -19 -19 -29 -17 -70 16 -9 6
35 46 66 59 81 35 177 2 213 -71 11 -23 20 -50 21 -61 0 -10 19 -32 41 -49
135 -99 89 -298 -84 -361 -26 -10 -75 -16 -126 -16 -73 0 -91 4 -147 31 -74
37 -116 83 -147 161 -19 46 -22 75 -22 180 0 139 17 203 73 270 77 94 230 128
373 84z"/>
<path d="M1458 724 c-21 -11 -28 -22 -28 -44 0 -57 85 -81 135 -37 25 22 49
80 37 91 -11 12 -118 5 -144 -10z m82 -38 c0 -17 -34 -31 -50 -21 -16 10 8 35
31 35 11 0 19 -6 19 -14z"/>
</g>
</svg>
